<svg width="18" height="20" viewBox="0 0 18 20" fill="none" xmlns="http://www.w3.org/2000/svg">
<path d="M17 17.5C17.2761 17.5 17.5 17.2761 17.5 17C17.5 16.7239 17.2761 16.5 17 16.5V17.5ZM1 16.5C0.723858 16.5 0.5 16.7239 0.5 17C0.5 17.2761 0.723858 17.5 1 17.5V16.5ZM17 10.5C17.2761 10.5 17.5 10.2761 17.5 10C17.5 9.72386 17.2761 9.5 17 9.5V10.5ZM1 2.5C0.723858 2.5 0.5 2.72386 0.5 3C0.5 3.27614 0.723858 3.5 1 3.5V2.5ZM17 16.5H11V17.5H17V16.5ZM11.5 17C11.5 15.6193 10.3807 14.5 9 14.5V15.5C9.82845 15.5 10.5 16.1716 10.5 17H11.5ZM9 14.5C7.61925 14.5 6.5 15.6193 6.5 17H7.5C7.5 16.1716 8.17155 15.5 9 15.5V14.5ZM10.5 17C10.5 17.8284 9.82845 18.5 9 18.5V19.5C10.3807 19.5 11.5 18.3807 11.5 17H10.5ZM9 18.5C8.17155 18.5 7.5 17.8284 7.5 17H6.5C6.5 18.3807 7.61925 19.5 9 19.5V18.5ZM7 16.5H1V17.5H7V16.5ZM17 9.5L5 9.5L5 10.5L17 10.5V9.5ZM5.5 10C5.5 8.61926 4.38074 7.5 3 7.5V8.5C3.82846 8.5 4.5 9.17154 4.5 10H5.5ZM3 7.5C1.61926 7.5 0.5 8.61926 0.5 10H1.5C1.5 9.17154 2.17154 8.5 3 8.5V7.5ZM0.5 10C0.5 11.3807 1.61926 12.5 3 12.5V11.5C2.17154 11.5 1.5 10.8285 1.5 10H0.5ZM3 12.5C4.38074 12.5 5.5 11.3807 5.5 10H4.5C4.5 10.8285 3.82846 11.5 3 11.5V12.5ZM13 2.5H1V3.5L13 3.5V2.5ZM12.5 3C12.5 4.38075 13.6193 5.5 15 5.5V4.5C14.1716 4.5 13.5 3.82845 13.5 3H12.5ZM15 5.5C16.3807 5.5 17.5 4.38075 17.5 3H16.5C16.5 3.82845 15.8284 4.5 15 4.5V5.5ZM17.5 3C17.5 1.61925 16.3807 0.5 15 0.5V1.5C15.8284 1.5 16.5 2.17155 16.5 3H17.5ZM15 0.5C13.6193 0.5 12.5 1.61925 12.5 3H13.5C13.5 2.17155 14.1716 1.5 15 1.5V0.5Z" fill="black"/>
</svg>
